<?xml version="1.0" encoding="UTF-8" standalone="no"?>
<!DOCTYPE svg PUBLIC "-//W3C//DTD SVG 1.1//EN"
 "http://www.w3.org/Graphics/SVG/1.1/DTD/svg11.dtd">
<!-- Generated by graphviz version 2.36.0 (20140111.2315)
 -->
<!-- Title: G Pages: 1 -->
<svg width="154pt" height="132pt"
 viewBox="0.00 0.00 154.00 132.00" xmlns="http://www.w3.org/2000/svg" xmlns:xlink="http://www.w3.org/1999/xlink">
<g id="graph0" class="graph" transform="scale(1 1) rotate(0) translate(4 128)">
<title>G</title>
<polygon fill="white" stroke="none" points="-4,4 -4,-128 150,-128 150,4 -4,4"/>
<g id="clust1" class="cluster"><title>cluster_Global</title>
<path fill="none" stroke="gray" d="M20,-8C20,-8 126,-8 126,-8 132,-8 138,-14 138,-20 138,-20 138,-104 138,-104 138,-110 132,-116 126,-116 126,-116 20,-116 20,-116 14,-116 8,-110 8,-104 8,-104 8,-20 8,-20 8,-14 14,-8 20,-8"/>
<text text-anchor="middle" x="73" y="-103.2" font-family="Times,serif" font-size="11.00" fill="gray">Global</text>
</g>
<g id="clust2" class="cluster"><title>cluster_\rollbackpt</title>
<path fill="none" stroke="gray" d="M28,-16C28,-16 118,-16 118,-16 124,-16 130,-22 130,-28 130,-28 130,-76 130,-76 130,-82 124,-88 118,-88 118,-88 28,-88 28,-88 22,-88 16,-82 16,-76 16,-76 16,-28 16,-28 16,-22 22,-16 28,-16"/>
<text text-anchor="middle" x="73" y="-75.2" font-family="Times,serif" font-size="11.00" fill="gray">rollbackpt</text>
</g>
<!-- \\rollbackpt\\UrlExtractor -->
<g id="node1" class="node"><title>\\rollbackpt\\UrlExtractor</title>
<polygon fill="none" stroke="black" points="122,-60 24,-60 24,-24 122,-24 122,-60"/>
<text text-anchor="middle" x="73" y="-39.2" font-family="Courier,monospace" font-size="11.00">UrlExtractor</text>
</g>
</g>
</svg>
