<?xml version="1.0" encoding="UTF-8" standalone="no"?>
<!DOCTYPE svg PUBLIC "-//W3C//DTD SVG 1.1//EN"
 "http://www.w3.org/Graphics/SVG/1.1/DTD/svg11.dtd">
<!-- Generated by graphviz version 2.36.0 (20140111.2315)
 -->
<!-- Title: G Pages: 1 -->
<svg width="170pt" height="168pt"
 viewBox="0.00 0.00 170.00 168.00" xmlns="http://www.w3.org/2000/svg" xmlns:xlink="http://www.w3.org/1999/xlink">
<g id="graph0" class="graph" transform="scale(1 1) rotate(0) translate(4 164)">
<title>G</title>
<polygon fill="white" stroke="none" points="-4,4 -4,-164 166,-164 166,4 -4,4"/>
<g id="clust1" class="cluster"><title>cluster_Global</title>
<path fill="none" stroke="gray" d="M20,-8C20,-8 142,-8 142,-8 148,-8 154,-14 154,-20 154,-20 154,-140 154,-140 154,-146 148,-152 142,-152 142,-152 20,-152 20,-152 14,-152 8,-146 8,-140 8,-140 8,-20 8,-20 8,-14 14,-8 20,-8"/>
<text text-anchor="middle" x="81" y="-139.2" font-family="Times,serif" font-size="11.00" fill="gray">Global</text>
</g>
<g id="clust2" class="cluster"><title>cluster_\rollbackpt</title>
<path fill="none" stroke="gray" d="M28,-16C28,-16 134,-16 134,-16 140,-16 146,-22 146,-28 146,-28 146,-112 146,-112 146,-118 140,-124 134,-124 134,-124 28,-124 28,-124 22,-124 16,-118 16,-112 16,-112 16,-28 16,-28 16,-22 22,-16 28,-16"/>
<text text-anchor="middle" x="81" y="-111.2" font-family="Times,serif" font-size="11.00" fill="gray">rollbackpt</text>
</g>
<g id="clust3" class="cluster"><title>cluster_\rollbackpt\UrlExtractor</title>
<path fill="none" stroke="gray" d="M36,-24C36,-24 126,-24 126,-24 132,-24 138,-30 138,-36 138,-36 138,-84 138,-84 138,-90 132,-96 126,-96 126,-96 36,-96 36,-96 30,-96 24,-90 24,-84 24,-84 24,-36 24,-36 24,-30 30,-24 36,-24"/>
<text text-anchor="middle" x="81" y="-83.2" font-family="Times,serif" font-size="11.00" fill="gray">UrlExtractor</text>
</g>
<!-- \\rollbackpt\\UrlExtractor\\UrlExtractor -->
<g id="node1" class="node"><title>\\rollbackpt\\UrlExtractor\\UrlExtractor</title>
<polygon fill="none" stroke="black" points="130,-68 32,-68 32,-32 130,-32 130,-68"/>
<text text-anchor="middle" x="81" y="-47.2" font-family="Courier,monospace" font-size="11.00">UrlExtractor</text>
</g>
</g>
</svg>
